#!OML:ASF H:\ManfredETheater\Project 1\Capture day 1\Session 1\subject.ASF
:FULLY-SPECIFIED
:DEGREES
311
root 12.6685 15.5892 -35.1173 -139.655 13.3196 207.304
lowerback 29.8901 5.68658 -7.40384
upperback 8.16606 6.76863 0.894727
thorax -7.94071 3.86347 2.72287
lowerneck -6.20244 -0.603399 -3.68117
upperneck -19.6008 1.87548 6.45698
head -4.94302 1.68831 2.52926
rclavicle 1.90833e-014 -6.91771e-014
rhumerus -38.488 0.345903 -82.7059
rradius 33.5955
rwrist 1.5556
rhand -19.5252 -15.7389
rfingers 7.12502
rthumb 6.79821 -45.6098
lclavicle 1.90833e-014 -6.91771e-014
lhumerus -57.1118 -0.622879 80.9282
lradius 46.2147
lwrist 20.3637
lhand -30.3418 -2.5281
lfingers 7.12502
lthumb -3.64758 27.4204
rfemur -20.9966 11.8408 12.1357
rtibia 96.1956
rfoot 23.2803 -14.1195
rtoes -8.26302
lfemur -83.5696 14.2901 -26.8406
ltibia 70.3212
lfoot -21.0543 0.511453
ltoes 36.3103
312
root 12.7954 15.5894 -35.5332 -137.593 13.0296 207.395
lowerback 27.0693 5.35377 -6.8281
upperback 7.63539 6.49724 0.844433
thorax -7.12155 3.66122 2.64041
lowerneck -6.40777 -0.642281 -3.35655
upperneck -19.9006 1.8858 6.32587
head -5.00234 1.71235 2.43247
rclavicle -8.5875e-014 -7.31528e-014
rhumerus -39.7319 0.524825 -83.2029
rradius 35.0043
rwrist 1.51919
rhand -20.468 -15.5372
rfingers 7.12502
rthumb 5.88796 -45.4354
lclavicle -8.5875e-014 -7.31528e-014
lhumerus -56.5464 -3.75782 82.0972
lradius 46.3969
lwrist 19.5718
lhand -28.8686 -2.0126
lfingers 7.12502
lthumb -2.2248 27.9555
rfemur -28.1266 11.4976 10.7904
rtibia 100.837
rfoot 21.9155 -15.2074
rtoes -6.81656
lfemur -84.6025 14.6342 -27.2222
ltibia 71.1116
lfoot -22.9044 0.411121
ltoes 35.9411
313
root 12.9083 15.5959 -35.9491 -135.684 12.5109 207.151
lowerback 24.4413 4.92561 -6.11822
upperback 7.09334 6.11032 0.817236
thorax -6.34167 3.40917 2.51844
lowerneck -6.69583 -0.70267 -3.10523
upperneck -19.9744 1.83219 6.18564
head -4.97508 1.70059 2.34745
rclavicle 9.54166e-014 -3.97569e-015
rhumerus -40.8892 0.557513 -83.5621
rradius 36.283
rwrist 1.42713
rhand -21.6847 -15.3131
rfingers 7.12502
rthumb 4.71325 -45.2406
lclavicle 9.54166e-014 -3.97569e-015
lhumerus -55.7853 -6.66567 83.019
lradius 46.6562
lwrist 17.818
lhand -26.8984 -1.55268
lfingers 7.12502
lthumb -0.321971 28.4268
rfemur -35.2314 10.4193 9.33617
rtibia 104.727
rfoot 20.3693 -15.8911
rtoes -6.19732
lfemur -85.2669 14.4818 -27.634
ltibia 71.4973
lfoot -24.5798 0.448819
ltoes 35.5485
314
root 13.0093 15.6143 -36.3688 -134.229 11.9184 206.45
lowerback 22.3032 4.45361 -5.54041
upperback 6.59905 5.60511 0.78941
thorax -5.72026 3.1123 2.45077
lowerneck -7.0635 -0.759831 -2.91471
upperneck -19.8411 1.75237 6.0428
head -4.86976 1.67121 2.27333
rclavicle 9.54166e-014 3.97569e-015
rhumerus -41.9066 0.470965 -83.782
rradius 37.3624
rwrist 1.27538
rhand -22.9765 -14.9703
rfingers 7.12502
rthumb 3.4658 -44.9219
lclavicle 9.54166e-014 3.97569e-015
lhumerus -54.8333 -9.059 83.5177
lradius 47.0184
lwrist 15.0237
lhand -24.5625 -1.22425
lfingers 7.12502
lthumb 1.93411 28.7467
rfemur -41.8591 8.64993 7.75079
rtibia 107.773
rfoot 18.7713 -16.074
rtoes -6.20079
lfemur -85.2036 13.8719 -28.1116
ltibia 71.5148
lfoot -26.0943 0.644091
ltoes 34.9595
315
root 13.1011 15.6488 -36.7957 -133.4 11.323 205.316
lowerback 20.8365 3.95416 -5.19528
upperback 6.18933 4.99438 0.752253
thorax -5.33828 2.77896 2.46716
lowerneck -7.43127 -0.795188 -2.76769
upperneck -19.5774 1.68019 5.91243
head -4.72498 1.639 2.21076
rclavicle 3.18055e-014 -5.32743e-014
rhumerus -42.7702 0.284033 -83.8794
rradius 38.2115
rwrist 1.06823
rhand -24.1319 -14.4487
rfingers 7.12502
rthumb 2.34995 -44.4155
lclavicle 3.18055e-014 -5.32743e-014
lhumerus -53.7372 -10.7248 83.4774
lradius 47.5329
lwrist 11.2425
lhand -22.0497 -1.11908
lfingers 7.12502
lthumb 4.36076 28.816
rfemur -47.687 6.37112 6.15227
rtibia 109.923
rfoot 17.2055 -15.7719
rtoes -6.791
lfemur -84.2149 12.8973 -28.6045
ltibia 71.2143
lfoot -27.4211 1.01195
ltoes 34
316
root 13.1874 15.7012 -37.2312 -133.24 10.7367 203.882
lowerback 20.0959 3.43512 -5.08077
upperback 5.88937 4.30489 0.715276
thorax -5.21319 2.42286 2.57533
lowerneck -7.72296 -0.792411 -2.63263
upperneck -19.2888 1.64865 5.7924
head -4.5872 1.62038 2.15262
rclavicle 1.17681e-013 -6.36111e-015
rhumerus -43.453 -0.000381793 -83.8672
rradius 38.8173
rwrist 0.851023
rhand -24.947 -13.7112
rfingers 7.12502
rthumb 1.56275 -43.6852
lclavicle 1.17681e-013 -6.36111e-015
lhumerus -52.5759 -11.5449 82.8983
lradius 48.2916
lwrist 6.76945
lhand -19.6871 -1.23266
lfingers 7.12502
lthumb 6.64188 28.6432
rfemur -52.5771 3.87853 4.69733
rtibia 111.174
rfoot 15.7685 -15.0953
rtoes -7.53131
lfemur -82.276 11.6999 -29.0357
ltibia 70.6531
lfoot -28.5206 1.55167
ltoes 32.5609
317
root 13.2713 15.7711 -37.6756 -133.678 10.1009 202.322
lowerback 20.0286 2.90068 -5.09691
upperback 5.69252 3.56948 0.702228
thorax -5.32807 2.05952 2.75429
lowerneck -7.90856 -0.742137 -2.50968
upperneck -19.0302 1.67935 5.69143
head -4.47882 1.62765 2.10118
rclavicle 6.67916e-014 3.18055e-015
rhumerus -43.962 -0.392757 -83.7518
rradius 39.2066
rwrist 0.677539
rhand -25.2914 -12.7669
rfingers 7.12502
rthumb 1.23011 -42.7431
lclavicle 6.67916e-014 3.18055e-015
lhumerus -51.4834 -11.5739 81.916
lradius 49.4133
lwrist 2.12292
lhand -17.8798 -1.42663
lfingers 7.12502
lthumb 8.38633 28.3869
rfemur -56.5312 1.47278 3.56045
rtibia 111.542
rfoot 14.6171 -14.1555
rtoes -8.22232
lfemur -79.5068 10.3938 -29.2957
ltibia 69.8896
lfoot -29.346 2.23845
ltoes 30.5604
318
root 13.3545 15.8566 -38.1286 -134.568 9.35683 200.813
lowerback 20.4918 2.35886 -5.13043
upperback 5.58041 2.82504 0.741893
thorax -5.62718 1.70503 2.98478
lowerneck -7.98693 -0.647366 -2.37122
upperneck -18.8425 1.76925 5.57573
head -4.41191 1.66135 2.04115
rclavicle 3.18055e-014 -5.56597e-015
rhumerus -44.2988 -0.901059 -83.5292
rradius 39.4145
rwrist 0.60931
rhand -25.1165 -11.661
rfingers 7.12502
rthumb 1.39908 -41.6361
lclavicle 3.18055e-014 -5.56597e-015
lhumerus -50.5809 -10.9801 80.7381
lradius 50.996
lwrist -2.05817
lhand -16.8999 -1.45031
lfingers 7.12502
lthumb 9.33197 28.3231
rfemur -59.6732 -0.613233 2.85775
rtibia 111.071
rfoot 13.7915 -13.1405
rtoes -8.51465
lfemur -76.1276 9.09329 -29.3232
ltibia 68.9802
lfoot -29.8619 3.00557
ltoes 27.9787
319
root 13.4385 15.9554 -38.5902 -135.759 8.50066 199.491
lowerback 21.3244 1.83119 -5.11777
upperback 5.53262 2.11686 0.848268
thorax -6.04894 1.37888 3.25321
lowerneck -8.00166 -0.518284 -2.20416
upperneck -18.7057 1.9011 5.42003
head -4.37221 1.71448 1.96291
rclavicle 9.22361e-014 -1.43125e-014
rhumerus -44.489 -1.53767 -83.2001
rradius 39.5043
rwrist 0.700149
rhand -24.4843 -10.4492
rfingers 7.12502
rthumb 2.00966 -40.4195
lclavicle 9.22361e-014 -1.43125e-014
lhumerus -49.9392 -10.0207 79.5799
lradius 53.0632
lwrist -5.24159
lhand -16.9563 -1.11392
lfingers 7.12502
lthumb 9.27751 28.662
rfemur -62.1511 -2.21701 2.6148
rtibia 109.816
rfoot 13.2435 -12.2105
rtoes -7.98596
lfemur -72.3488 7.8893 -29.0966
ltibia 67.9741
lfoot -30.0591 3.80854
ltoes 24.7639
320
root 13.5226 16.0638 -39.0611 -137.103 7.53865 198.432
lowerback 22.3462 1.32667 -4.99558
upperback 5.52626 1.47628 1.02443
thorax -6.52467 1.09219 3.53033
lowerneck -7.99335 -0.375653 -2.02376
upperneck -18.5887 2.04498 5.22145
head -4.3421 1.77384 1.86888
rclavicle 1.1291e-013 6.52014e-014
rhumerus -44.5695 -2.31101 -82.7636
rradius 39.5358
rwrist 0.991399
rhand -23.5409 -9.20165
rfingers 7.12502
rthumb 2.9207 -39.1614
lclavicle 1.1291e-013 6.52014e-014
lhumerus -49.5514 -8.94875 78.6047
lradius 55.5756
lwrist -7.02765
lhand -17.9948 -0.366794
lfingers 7.12502
lthumb 8.27533 29.4511
rfemur -64.0928 -3.31144 2.80229
rtibia 107.826
rfoot 12.933 -11.5499
rtoes -7.08697
lfemur -68.3757 6.82436 -28.6332
ltibia 66.9106
lfoot -29.919 4.61235
ltoes 20.8815
321
root 13.6058 16.1787 -39.5417 -138.5 6.52883 197.648
lowerback 23.4223 0.860125 -4.76878
upperback 5.54364 0.926825 1.25319
thorax -7.00632 0.852918 3.79696
lowerneck -8.26269 -0.236897 -1.77889
upperneck -17.8899 2.12877 4.818
head -4.60575 1.83082 1.86448
rclavicle -9.54166e-015 -1.11319e-014
rhumerus -44.5855 -3.17946 -82.2463
rradius 39.558
rwrist 1.46301
rhand -22.5018 -7.96422
rfingers 7.12502
rthumb 3.92417 -37.9078
lclavicle -9.54166e-015 -1.11319e-014
lhumerus -49.3428 -7.91939 77.8798
lradius 58.4283
lwrist -7.34957
lhand -19.8581 0.632622
lfingers 7.12502
lthumb 6.4768 30.5136
rfemur -65.6001 -3.95092 3.32058
rtibia 105.152
rfoot 12.8169 -11.1419
rtoes -5.90228
lfemur -64.3493 5.9249 -27.9948
ltibia 65.816
lfoot -29.4271 5.36636
ltoes 16.4147
